<?xml version="1.0" standalone="no"?>
<!DOCTYPE svg PUBLIC "-//W3C//DTD SVG 20010904//EN"
 "http://www.w3.org/TR/2001/REC-SVG-20010904/DTD/svg10.dtd">
<svg version="1.0" xmlns="http://www.w3.org/2000/svg"
 width="2048.000000pt" height="2048.000000pt" viewBox="0 0 2048.000000 2048.000000"
 preserveAspectRatio="xMidYMid meet">
<metadata>
Created by potrace 1.14, written by Peter Selinger 2001-2017
</metadata>
<g transform="translate(0.000000,2048.000000) scale(0.100000,-0.100000)"
fill="#000000" stroke="none">
<path d="M8612 19979 c-477 -29 -930 -194 -1277 -464 -102 -79 -302 -286 -388
-401 -156 -207 -254 -496 -248 -729 1 -60 6 -114 10 -120 4 -5 16 -44 26 -85
43 -185 161 -469 280 -676 208 -363 484 -704 838 -1034 166 -156 208 -189 170
-132 -17 25 -230 347 -349 527 -29 44 -80 121 -114 170 -286 418 -468 846
-505 1190 -15 133 29 344 100 485 177 349 618 655 1131 785 157 39 283 55 484
62 375 12 762 -49 1159 -184 374 -126 774 -329 1131 -572 659 -449 1250 -1012
1727 -1646 264 -351 681 -1030 922 -1502 61 -119 83 -145 105 -123 18 18 11
120 -13 200 -98 319 -447 1052 -689 1445 -410 667 -956 1260 -1653 1796 -892
687 -1954 1063 -2847 1008z"/>
<path d="M8321 16354 c-162 -121 -367 -198 -681 -253 -296 -53 -713 -64 -1275
-35 -421 21 -1161 30 -1381 15 -555 -38 -991 -136 -1379 -312 -504 -229 -860
-595 -1004 -1034 -51 -156 -84 -359 -80 -495 1 -41 -1 -82 -3 -90 -30 -85 -32
-103 -20 -238 7 -75 23 -193 37 -261 14 -68 24 -125 23 -127 -2 -1 -44 -23
-93 -48 -119 -60 -206 -127 -345 -266 -128 -128 -256 -284 -359 -435 -374
-551 -634 -1336 -692 -2093 -12 -161 -5 -226 27 -239 11 -4 14 -31 14 -132 0
-507 202 -1179 465 -1551 121 -170 215 -258 425 -396 150 -98 234 -143 286
-151 l39 -6 -26 30 c-25 30 -100 191 -113 243 -5 19 -2 16 13 -10 22 -40 58
-80 71 -80 5 0 -5 37 -22 83 -59 162 -130 478 -165 737 -26 194 -26 828 0
1040 22 178 56 347 101 507 19 67 49 193 66 280 18 87 35 164 40 172 4 8 10
-80 13 -195 6 -235 19 -312 85 -509 106 -317 240 -552 447 -785 154 -172 245
-230 261 -166 3 13 1 33 -5 44 -22 41 -10 33 22 -14 17 -26 43 -54 56 -63 l23
-15 -4 39 c-3 22 -17 84 -32 138 -59 222 -92 585 -82 897 11 370 74 679 201
996 100 248 194 410 330 568 l41 47 104 -50 c590 -276 1425 -372 2160 -246
358 61 743 213 1042 411 76 51 138 91 138 89 0 -2 -13 -58 -30 -126 -130 -547
-191 -1002 -191 -1444 -1 -231 6 -275 40 -275 27 0 34 27 76 300 98 636 290
1390 470 1845 201 511 458 854 659 881 68 10 124 -16 185 -82 75 -82 123 -193
200 -459 15 -55 51 -176 78 -270 28 -93 58 -210 68 -258 11 -51 22 -84 27 -79
5 5 14 105 20 223 11 210 18 249 42 230 14 -11 27 -6 131 59 39 24 102 58 142
77 77 36 314 125 319 120 2 -2 8 -66 14 -143 15 -206 28 -314 57 -466 24 -129
43 -170 43 -93 0 67 32 274 75 490 24 121 51 263 60 315 35 210 109 437 186
578 187 337 538 538 907 519 127 -6 206 -29 347 -99 391 -193 776 -625 1145
-1283 83 -148 256 -491 323 -640 25 -55 56 -125 70 -155 56 -123 174 -398 259
-605 135 -328 149 -354 179 -319 48 58 -106 758 -283 1289 -139 418 -332 831
-541 1153 -33 51 -58 94 -56 96 2 2 76 11 164 20 699 70 1340 -17 1995 -271
175 -68 499 -232 652 -330 208 -133 366 -261 543 -438 256 -256 418 -489 525
-758 22 -56 42 -77 74 -77 37 0 9 201 -55 395 -159 491 -548 937 -1100 1260
l-66 39 -1 76 c-2 198 -134 593 -298 895 -186 341 -404 614 -691 865 -154 136
-276 219 -393 270 -110 47 -120 55 -60 45 175 -28 -271 135 -586 214 -126 32
-416 78 -563 90 -256 21 -590 9 -866 -30 -726 -103 -1565 -432 -2225 -872
-406 -271 -819 -652 -1115 -1032 -101 -129 -206 -291 -241 -368 -19 -44 -39
-72 -71 -97 -62 -48 -194 -208 -258 -311 -115 -185 -210 -399 -291 -654 -25
-77 -48 -146 -52 -153 -8 -16 -48 -33 -347 -146 -359 -137 -566 -193 -823
-226 -249 -32 -664 -27 -957 10 -728 91 -1271 323 -1651 704 -129 129 -207
242 -300 430 -130 266 -175 461 -211 906 -16 208 74 518 201 685 318 418 849
697 1556 819 360 62 617 76 1400 76 644 0 913 9 1155 36 405 45 767 148 988
280 133 80 277 218 277 267 0 28 -22 20 -99 -39z"/>
<path d="M16218 14284 c-4 -3 11 -28 32 -56 22 -27 78 -125 125 -219 47 -93
110 -207 139 -252 206 -317 378 -765 436 -1128 20 -132 29 -380 19 -552 -16
-284 -45 -475 -109 -725 -22 -84 -40 -155 -40 -158 0 -2 13 -4 29 -4 126 0
329 558 397 1095 20 155 22 478 5 610 -51 384 -192 722 -413 982 -103 122
-228 236 -321 293 -109 67 -281 133 -299 114z"/>
<path d="M16200 14174 c0 -9 27 -96 59 -193 96 -283 142 -526 162 -851 13
-215 7 -318 -37 -675 -37 -303 -84 -568 -115 -649 -22 -59 -22 -59 -9 -51 17
11 85 154 119 248 77 220 142 479 160 637 36 325 -31 844 -155 1201 -73 210
-184 411 -184 333z"/>
<path d="M17843 12802 c-1 -72 -13 -195 -33 -322 -17 -113 -42 -299 -55 -415
-28 -238 -62 -430 -106 -588 -120 -438 -348 -836 -674 -1176 -81 -84 -322
-297 -340 -300 -5 -1 -19 35 -31 81 -23 93 -53 178 -63 178 -4 0 -8 -39 -9
-87 -1 -49 -11 -162 -23 -253 -16 -135 -48 -467 -49 -518 0 -10 -346 -12
-1717 -10 l-1717 3 -12 45 c-7 25 -26 106 -44 180 -82 344 -153 551 -276 808
-125 261 -233 437 -413 672 -399 521 -842 874 -1280 1020 -275 92 -488 91
-681 -2 -73 -35 -100 -56 -195 -152 -257 -259 -432 -655 -510 -1151 -45 -290
-55 -716 -29 -1282 l7 -143 -263 0 -263 0 7 98 c3 53 15 187 26 297 48 492 58
839 29 1025 -33 211 -170 429 -290 460 -24 6 -57 15 -74 20 -96 29 -214 42
-325 37 -133 -7 -210 -24 -333 -73 -541 -217 -937 -845 -1100 -1749 l-24 -130
-201 -3 -202 -2 0 192 c0 266 16 448 61 689 10 58 26 162 34 230 21 171 51
340 75 426 11 40 20 76 20 80 0 22 -83 -79 -155 -187 -268 -404 -338 -651
-339 -1191 l-1 -246 -550 -7 c-661 -8 -823 -16 -842 -42 -37 -50 -37 -59 -40
-1464 -2 -756 -1 -1399 2 -1428 5 -39 14 -61 36 -85 16 -17 35 -32 42 -33 7 0
19 -4 27 -7 15 -6 577 -21 1211 -33 l345 -7 0 -81 c-1 -148 61 -264 228 -432
120 -119 230 -198 391 -280 52 -26 93 -49 92 -50 -6 -6 -248 -64 -307 -74
-115 -18 -136 -15 -204 33 -340 242 -941 569 -1286 700 -615 235 -1196 281
-1526 122 -204 -98 -304 -280 -291 -529 6 -115 26 -186 92 -321 150 -306 433
-607 751 -801 120 -73 322 -174 348 -174 13 0 10 -9 -15 -42 -27 -38 -30 -49
-27 -98 5 -72 48 -135 134 -198 35 -26 170 -103 301 -171 620 -324 829 -458
1433 -917 569 -432 872 -636 1255 -842 511 -276 926 -388 1420 -386 359 2 682
73 1041 229 245 107 435 217 877 511 l292 193 3 -222 c7 -483 -42 -900 -148
-1274 -80 -283 -108 -338 -225 -439 -206 -178 -427 -378 -436 -395 -10 -19 4
-69 19 -69 38 0 808 565 1677 1230 493 378 807 621 1190 925 261 207 1025 820
1193 956 l192 158 5 138 c3 76 8 147 12 158 5 18 4 18 -15 5 -80 -58 -1188
-927 -1472 -1153 -79 -64 -146 -115 -147 -113 -6 5 65 203 142 397 132 333
327 743 450 949 35 58 92 161 127 230 l64 124 204 59 c887 252 1118 331 1465
502 463 228 770 500 886 785 62 153 76 351 39 529 -11 52 -20 98 -20 103 0 4
204 8 453 8 348 0 457 3 469 13 30 24 39 84 48 332 14 370 16 1926 4 2335 -13
447 -3 420 -164 440 -47 6 -254 13 -460 17 l-375 6 -1 166 c-1 118 -7 195 -21
268 l-19 101 40 12 c108 32 361 183 513 307 369 298 698 856 802 1363 49 233
59 512 28 705 -40 238 -108 494 -153 573 -14 23 -26 42 -27 42 -1 0 -3 -53 -4
-118z m-7021 -816 c289 -76 550 -247 884 -580 489 -489 789 -968 964 -1537 57
-185 122 -437 118 -457 -3 -16 -106 -17 -1520 -17 l-1516 -1 -6 40 c-3 23 -9
292 -12 599 -8 704 1 798 111 1152 57 184 99 275 200 435 126 199 265 327 403
371 88 28 254 26 374 -5z m-2072 -767 c93 -15 109 -26 151 -102 70 -131 96
-339 79 -650 -13 -253 -33 -508 -59 -767 -34 -334 -30 -309 -54 -315 -12 -2
-401 -6 -864 -7 l-843 -3 6 35 c156 927 617 1629 1170 1781 43 12 98 25 123
29 69 12 218 11 291 -1z m-1252 -4997 c7 -9 51 -71 98 -137 101 -141 193 -238
287 -303 l68 -46 -187 -94 c-103 -52 -236 -114 -296 -138 l-109 -45 -162 108
c-274 181 -465 396 -475 534 -4 50 0 65 23 105 l27 46 357 -7 c316 -6 357 -8
369 -23z m1268 11 c212 -4 309 -9 289 -15 -235 -70 -420 -146 -774 -319 l-244
-119 -86 79 c-104 95 -261 256 -320 329 l-43 52 429 0 c237 0 573 -3 749 -7z
m3801 -17 c4 -4 -111 -340 -160 -467 -52 -133 -64 -183 -47 -194 16 -10 47 20
95 95 60 92 88 149 181 370 l81 195 369 3 369 2 -125 -126 c-261 -263 -495
-436 -780 -578 -464 -230 -896 -290 -1330 -185 -125 30 -319 105 -362 138 -13
10 -48 31 -78 46 -39 19 -103 74 -220 189 -190 187 -260 246 -385 329 -110 72
-180 108 -310 159 l-100 39 1400 -6 c769 -3 1400 -7 1402 -9z m2343 10 c0 -2
-42 -39 -92 -82 -51 -44 -187 -164 -302 -269 -357 -325 -422 -381 -721 -620
-789 -630 -1214 -942 -1935 -1421 -626 -416 -753 -497 -1158 -741 -473 -285
-512 -306 -629 -342 -298 -92 -588 -113 -841 -62 -546 112 -1146 432 -2892
1545 -395 251 -574 357 -770 455 -183 91 -309 143 -416 171 -154 40 -211 15
-81 -35 118 -46 291 -130 431 -209 146 -83 364 -226 1016 -667 775 -525 1186
-780 1680 -1045 235 -126 324 -167 540 -247 332 -124 455 -151 705 -151 257 0
461 45 780 171 169 67 251 107 362 179 47 30 133 79 192 109 311 156 1266 752
1761 1100 406 285 651 461 911 655 115 86 174 123 227 143 88 33 249 65 552
113 368 57 607 122 872 238 180 79 239 109 353 185 171 114 288 245 380 431
42 84 46 129 32 303 l-8 97 274 0 275 0 15 -37 c54 -136 62 -360 17 -476 -111
-290 -491 -559 -1179 -836 -217 -88 -277 -110 -616 -231 -536 -190 -768 -287
-1180 -490 -495 -245 -796 -418 -1315 -755 -563 -365 -1069 -665 -1501 -889
-698 -362 -1281 -477 -1848 -365 -377 75 -957 334 -1400 626 -151 99 -385 268
-581 417 -600 460 -970 683 -1545 935 -199 87 -305 140 -305 153 0 10 88 54
165 83 33 13 124 53 202 89 79 36 154 68 168 72 94 23 -53 33 -220 14 -150
-17 -281 -58 -438 -138 -4 -2 -6 2 -5 8 2 7 -49 50 -112 96 -228 166 -402 338
-568 560 -223 299 -309 557 -252 754 38 134 215 199 505 186 376 -16 807 -140
1291 -371 349 -167 937 -524 1439 -875 77 -54 235 -157 350 -230 116 -73 231
-147 258 -166 26 -19 51 -34 57 -34 23 0 -98 161 -265 349 -106 120 -336 326
-518 463 l-48 37 33 5 c18 3 69 10 113 16 302 42 569 139 1330 485 529 240
719 298 975 297 145 0 269 -20 418 -67 110 -35 355 -159 508 -258 71 -47 184
-115 250 -152 65 -37 179 -101 252 -142 171 -95 235 -124 390 -173 293 -92
570 -103 896 -34 183 39 314 86 511 184 203 101 328 178 463 287 136 109 349
319 470 463 l105 125 591 5 c325 3 599 6 609 8 9 1 17 0 17 -2z m388 -38 c62
-93 149 -250 218 -398 l73 -155 -37 -33 c-60 -53 -220 -156 -333 -216 l-106
-56 -46 93 c-25 50 -98 170 -162 266 -63 95 -115 176 -115 180 0 3 34 44 76
91 42 47 113 127 157 178 l80 92 83 0 83 0 29 -42z m470 -25 c18 -40 38 -108
47 -165 l17 -97 -87 -101 c-47 -55 -90 -100 -94 -100 -5 0 -12 16 -16 37 -18
96 -125 304 -216 418 l-59 75 188 0 189 0 31 -67z m-940 -486 c44 -84 97 -182
119 -217 21 -36 51 -86 66 -113 l28 -47 -48 -21 c-147 -63 -590 -188 -614
-173 -5 3 -9 12 -9 21 0 20 -65 149 -97 191 -13 18 -23 36 -21 40 2 4 55 55
118 112 63 58 173 162 245 232 71 70 131 128 132 128 1 0 37 -69 81 -153z
m-584 -482 c27 -58 47 -107 45 -108 -2 -1 -78 -17 -169 -35 -91 -18 -209 -48
-262 -65 -54 -18 -98 -32 -98 -31 0 1 87 72 194 157 106 86 199 163 206 172 7
8 18 15 24 15 7 0 34 -47 60 -105z m-865 -1992 c-73 -251 -129 -542 -129 -666
l0 -72 -82 -65 c-228 -179 -1230 -1005 -1598 -1315 -175 -148 -189 -159 -167
-124 25 38 101 225 141 344 66 194 122 446 151 672 l7 51 96 63 c178 117 553
389 1047 760 270 202 504 379 520 393 17 14 31 25 32 26 1 0 -7 -30 -18 -67z"/>
<path d="M9814 5310 c-31 -12 -54 -49 -54 -85 0 -36 42 -106 91 -151 81 -75
242 -164 395 -217 196 -68 273 -79 288 -41 13 35 -25 63 -191 144 -187 91
-347 183 -408 235 l-40 34 35 1 c30 0 301 -66 354 -86 14 -5 17 -3 15 11 -6
28 -111 81 -248 125 -122 40 -192 48 -237 30z"/>
<path d="M17711 12648 c-7 -18 -30 -89 -53 -158 -72 -222 -167 -444 -258 -600
-121 -210 -358 -570 -447 -681 -29 -36 -53 -69 -53 -73 0 -4 34 21 76 55 141
117 343 345 446 504 170 261 319 673 322 889 1 96 -13 122 -33 64z"/>
</g>
</svg>
